<?xml version="1.0" encoding="utf-8"?>
<!-- Generator: Adobe Illustrator 25.4.1, SVG Export Plug-In . SVG Version: 6.00 Build 0)  -->
<svg version="1.1" id="Camada_1" xmlns="http://www.w3.org/2000/svg" xmlns:xlink="http://www.w3.org/1999/xlink" x="0px" y="0px"
	 viewBox="0 0 500 500" style="enable-background:new 0 0 500 500;" xml:space="preserve">
<style type="text/css">
	.st0{fill:#5A5A5A;}
</style>
<path id="XMLID_00000101807547094147844880000009738889033011899280_" class="st0" d="M335.2,372.3c-2-8.3-4.1-16.6-6.1-24.9
	c0-0.2-0.1-0.4-0.2-0.6c-2.8,1.9-5.8,3.5-8.8,4.7c-5.5,2.1-11.1,3.9-17.2,2.7c-3.7-0.8-7-2.5-9.6-5.4c-3.5-3.9-6.1-8.4-8-13.3
	c-1.2-3.1-2.2-6.2-3.2-9.3c-0.8-2.5-28.4-150.7-30.7-159.5c-1-3.8-2.4-7.5-3.8-11.2c-2.4-6.2-5.2-12.1-8.8-17.7
	c-3.6-5.5-7.8-10.4-13.2-14.3c-6.2-4.4-13.1-6.4-20.6-6.9c-8.2-0.5-15.9,1.5-23.6,3.6c-4.7,1.3-9.1,3.5-13.4,6
	c-0.7,0.4-0.8,0.8-0.6,1.6c2,8,4,15.9,5.9,23.9c0.2,0.8,0.2,1.3,1.3,0.6c3.3-2,6.8-3.8,10.4-4.9c5.8-1.8,11.8-3.3,17.9-0.7
	c3.8,1.7,6.7,4.3,9,7.6c2.9,4.1,4.9,8.6,6.6,13.3c0.7,1.8,2.7,11.5,5.4,25.2l-58.9,164l31.7-0.6L234,247
	c6.6,35.2,12.9,69.3,13.4,71.8c0.7,3.3,5.1,19.6,6.9,24.5c2.6,7,5.8,13.6,9.9,19.8c4.5,6.7,10,12.5,17.3,16.2
	c5.8,3,12.1,4.1,18.6,4.1c2.6,0,5.1-0.2,7.7-0.7c0.2-0.1,0.4,0,0.5,0.2c4.5-1.1,9-2.2,13.6-3.3c1-0.9,2.3-0.9,3.4-1.4
	c3.2-1.4,6.4-2.8,9.4-4.6C335.3,373.2,335.3,372.9,335.2,372.3z"/>
</svg>
